<svg id="Layer_1" data-name="Layer 1" xmlns="http://www.w3.org/2000/svg" viewBox="0 0 478.64 280.97"><defs><style>.cls-1{fill:#00a651;}</style></defs><path d="M619.16,552.52c0,12.21.22,24.42,0,36.63-.6,27.24-14.73,44.16-41.57,49.29-20.06,3.83-39.64,3-57.43-8.73A31.75,31.75,0,0,1,516.6,627c-13.47-12-13.1-14.9,2.74-22.31a25.52,25.52,0,0,0,2.66-1.35c6.37-4,11.37-5.63,18.4,1,8.43,8,20.07,8.12,30.94,3.9s14.38-12.11,13.2-27.53c-14.08,8.93-29.29,10.74-45,7.07C523.36,584,513,573,504.47,558.32c0,7.41-.3,14.84.11,22.24.26,4.74-.89,6.6-6,6.3a186.17,186.17,0,0,0-22.41,0c-5.2.33-6-1.72-5.95-6.34.26-16.44.31-32.9,0-49.34-.27-13.79-8.9-22-20.87-20.58-9.52,1.13-17.6,10.07-17.69,20-.16,16.69-.29,33.39,0,50.08.07,5-1.4,6.47-6.32,6.2a194.81,194.81,0,0,0-22.41,0c-4.84.29-5.7-1.51-5.68-5.91.18-29.65.23-59.31,0-89,0-5,1.8-5.76,6-5.52,5.71.31,11.46,0,17.19.09,6.14.07,14.33-2.48,10.19,11.61,14.35-13,28.29-17.36,44.54-12.68,15.8,4.55,26.72,13.57,29.45,32.68,7.87-16.6,17.71-28.68,34.51-32.64,16.31-3.84,31.56-1.55,45.86,10.91-1.87-10.48,3.75-10.22,9.82-9.95,8,.35,15.93.27,23.9.38.22.46.43.93.65,1.39q-.06,16.25-.11,32.49Q619.16,536.61,619.16,552.52Zm-57.83,7.53c14,.32,24.18-8.95,24.5-22.43.33-13.88-9.13-24.12-22.55-24.41-14.25-.3-24.11,9.19-24.3,23.39C538.78,550.42,547.68,559.75,561.33,560.05Z" transform="translate(-260.68 -359.52)"/><path d="M356,433c7.45-10.25,22.05-10.61,30.32-3a20.44,20.44,0,0,1,1,28.86c-7.95,8.83-20.59,8.88-29.71-.16-1.9-1.88-2.6-1.91-5.48-1.23-5.89,1.4-12.33.58-18.54.6-10.45,0-20.9.15-31.35-.07-3.73-.08-5.27.71-5.06,4.86.38,7.45.37,14.93,0,22.38-.2,4.47,1.6,5.4,5.65,5.34,13.68-.19,27.37.18,41-.17,4.82-.12,5.91,1.44,5.68,5.91a191.54,191.54,0,0,0,0,20.89c.26,4.5-1.5,5.33-5.53,5.26-13.43-.22-26.88.16-40.3-.22-5.09-.14-6.75.94-6.62,6.38.4,17.16,0,34.34.26,51.5.1,5.21-1.33,6.93-6.63,6.68-9.68-.46-19.4-.23-29.1-.29-.1-3-.27-5.95-.27-8.92q0-70.41,0-140.83c0-2.94.62-6-.69-8.82,2-2.92,5-1.67,7.52-1.68,16.64-.12,33.28-.08,49.91-.09,11.54,1.17,23.1.41,34.66.44l.77,1.32a1.25,1.25,0,0,0,.19,2c-.07.91-.15,1.82-.22,2.73-1,1-.91,2.72.06,2.94C355.05,436,355.8,434.51,356,433Z" transform="translate(-260.68 -359.52)"/><path d="M622.08,521.1c8.64-26.86,35.75-38.69,61.67-37.15,18.36,1.09,34.53,7.61,45.78,23,16.82,23,11.39,54.71-11.87,71.23-25.51,18.11-66.57,14.16-86.16-8.35a42.58,42.58,0,0,1-9.62-17.45A64,64,0,0,1,622.08,521.1Zm56.95,39c14.18,0,23.68-9.27,23.63-23.14,0-14.17-9.29-23.68-23.06-23.75s-23.32,9.3-23.43,23.35C656.05,551.19,664.65,560,679,560.07Z" transform="translate(-260.68 -359.52)"/><path d="M354.88,535.85c0-14.42.2-28.85-.11-43.27-.1-4.95,1.45-6.41,6.31-6.16,7.69.39,15.42.32,23.12,0,4.07-.16,4.95,1.36,4.93,5.12q-.19,45.13,0,90.27c0,3.89-1.05,5.17-5,5q-11.93-.47-23.87,0c-4.3.17-5.5-1.28-5.44-5.48C355,566.19,354.88,551,354.88,535.85Z" transform="translate(-260.68 -359.52)"/><path class="cls-1" d="M290,392.26c-.16-1.46-.31-2.93-.47-4.39a5,5,0,0,0-1.07-4.56,1.79,1.79,0,0,0-.2-1.41c.23-2.16.4-4.31-1.23-6.1l-.69-4.37c.42-.86.1-1.39-.75-1.68l0,0c-.06-.95-.13-1.9-.19-2.84q.68-3.15,1.36-6.3h-.05c3.76,2.09,8.05,2.24,12.07,3.36,14.37,4,27.76,9.81,32.67,25.61,1.56,5,3.07,9,9.28,10.28-3.17,1.19-4.8,2.8-4.48,5.7l-.16.12c-3,.32-4.45-.87-4.33-4,.08-2.11.31-4.45-2.72-4.9-2.17-6.46-5.17-12.34-11.26-16.05l-2.31-2c-.56-1.19-1.37-1.7-2.64-1l1.48,2,2.18,2.43c4.42,8.08,7.77,16.42,8.62,25.8.45,5-1.16,5.83-5.6,5.86-8.9.05-16.46-3.1-23.4-8.28l0,0Q293,398.93,290,392.26Z" transform="translate(-260.68 -359.52)"/><path class="cls-1" d="M361.71,404.25c-2,3.63-3.93,7.35-6.15,10.87-5.32,8.43-13.73,7.24-21.87,6.8-1.13-4.71.79-8.4,3.88-11.72,6-2.66,8.08-5.23,8.42-10.25.11-1.6,1.36-2,2.56-2,1.49.06,2.45,1.17,4.55.27C358.38,395.93,362.05,397.62,361.71,404.25Z" transform="translate(-260.68 -359.52)"/><path class="cls-1" d="M361.71,404.25c.34-6.63-3.32-8.31-8.63-6-2.09.91-3.06-.2-4.55-.27-1.2,0-2.45.39-2.56,2-.33,5-2.43,7.58-8.42,10.25.44-1.18.88-2.36,1.31-3.54a4.6,4.6,0,0,0,2.87-3.37c-2.35-.55-3.28.9-4.32,2.12a4,4,0,0,1-1.18.18c-.32-2.91,1.31-4.51,4.48-5.7-6.2-1.24-7.71-5.26-9.28-10.28-4.92-15.79-18.3-21.58-32.67-25.61-4-1.13-8.31-1.27-12.07-3.36a4.75,4.75,0,0,0,.3-1.12l2.84.1c1.37,1.37,3,1.13,4.71.86l4.25.7c.86,1.11,2,1.1,3.22.84l2.78.54a3.06,3.06,0,0,0,3.16,1.13c13.93,5.94,25,14.42,27.16,30.75.52,4,2.7,3.26,5.25,2.28,5.9-2.27,11.93-3.24,18.24-2C367.94,396.59,368.06,396.89,361.71,404.25Z" transform="translate(-260.68 -359.52)"/><path class="cls-1" d="M336.08,405.7l-6.18,14.78-1.53-1.1c-.16-7.53,2.86-15,.66-22.57,3,.45,2.8,2.79,2.72,4.9C331.63,404.83,333.12,406,336.08,405.7Z" transform="translate(-260.68 -359.52)"/><path class="cls-1" d="M283.9,360.88l2.85-.24q-.67,3.15-1.36,6.3C283.86,365.18,283.1,363.23,283.9,360.88Z" transform="translate(-260.68 -359.52)"/></svg>